<svg id="visual" viewBox="0 0 800 458" width="800" height="458" xmlns="http://www.w3.org/2000/svg" xmlns:xlink="http://www.w3.org/1999/xlink" version="1.1"><rect x="0" y="0" width="800" height="458" fill="#002233"></rect><path d="M0 401L13.3 385.3C26.7 369.7 53.3 338.3 80 315.2C106.7 292 133.3 277 160 282.2C186.7 287.3 213.3 312.7 240 333.2C266.7 353.7 293.3 369.3 320 374.3C346.7 379.3 373.3 373.7 400 355.5C426.7 337.3 453.3 306.7 480 307.3C506.7 308 533.3 340 560 352.2C586.7 364.3 613.3 356.7 640 335.2C666.7 313.7 693.3 278.3 720 274.5C746.7 270.7 773.3 298.3 786.7 312.2L800 326L800 459L786.7 459C773.3 459 746.7 459 720 459C693.3 459 666.7 459 640 459C613.3 459 586.7 459 560 459C533.3 459 506.7 459 480 459C453.3 459 426.7 459 400 459C373.3 459 346.7 459 320 459C293.3 459 266.7 459 240 459C213.3 459 186.7 459 160 459C133.3 459 106.7 459 80 459C53.3 459 26.7 459 13.3 459L0 459Z" fill="#15073d" stroke-linecap="round" stroke-linejoin="miter"></path></svg>